<svg width="60" height="52" viewBox="0 0 60 52" fill="none" xmlns="http://www.w3.org/2000/svg">
<path d="M45 40.97C40.95 40.97 38.4 42.23 36.15 43.37C34.2 44.36 32.61 45.17 30 45.17C27.3 45.17 25.8 44.42 23.85 43.37C21.6 42.23 19.14 40.97 15 40.97C10.86 40.97 8.4 42.23 6.15 43.37C4.2 44.36 2.64 45.17 0 45.17V51.02C4.05 51.02 6.6 49.76 8.85 48.62C10.8 47.63 12.36 46.82 15 46.82C17.64 46.82 19.2 47.57 21.15 48.62C23.4 49.76 25.86 51.02 30 51.02C34.14 51.02 36.6 49.76 38.85 48.62C40.8 47.63 42.39 46.82 45 46.82C47.7 46.82 49.2 47.57 51.15 48.62C53.4 49.76 55.89 51.02 60 51.02V45.17C57.3 45.17 55.8 44.42 53.85 43.37C51.6 42.23 49.05 40.97 45 40.97ZM45 27.62C40.95 27.62 38.4 28.91 36.15 30.02C34.2 30.98 32.61 31.82 30 31.82C27.3 31.82 25.8 31.07 23.85 30.02C21.6 28.88 19.14 27.62 15 27.62C10.86 27.62 8.4 28.91 6.15 30.02C4.2 30.98 2.64 31.82 0 31.82V37.67C4.05 37.67 6.6 36.38 8.85 35.27C10.8 34.22 12.3 33.47 15 33.47C17.7 33.47 19.2 34.22 21.15 35.27C23.4 36.41 25.86 37.67 30 37.67C34.14 37.67 36.6 36.38 38.85 35.27C40.8 34.22 42.3 33.47 45 33.47C47.7 33.47 49.2 34.22 51.15 35.27C53.4 36.41 55.89 37.67 60 37.67V31.82C57.3 31.82 55.8 31.07 53.85 30.02C51.6 28.88 49.05 27.62 45 27.62ZM53.85 3.37998C51.6 2.23998 49.11 0.97998 45 0.97998C40.89 0.97998 38.4 2.23998 36.15 3.37998C34.2 4.33998 32.61 5.17998 30 5.17998C27.3 5.17998 25.8 4.42998 23.85 3.37998C21.6 2.26998 19.14 0.97998 15 0.97998C10.86 0.97998 8.4 2.23998 6.15 3.37998C4.2 4.36998 2.64 5.17998 0 5.17998V10.97C4.05 10.97 6.6 9.67998 8.85 8.56998C10.8 7.57998 12.36 6.76998 15 6.76998C17.64 6.76998 19.2 7.51998 21.15 8.56998C23.4 9.70998 25.86 10.97 30 10.97C34.14 10.97 36.6 9.67998 38.85 8.56998C40.8 7.60998 42.39 6.76998 45 6.76998C47.7 6.76998 49.2 7.51998 51.15 8.56998C53.4 9.70998 55.89 10.97 60 10.97V5.11998C57.3 5.11998 55.8 4.36998 53.85 3.37998ZM45 14.27C40.95 14.27 38.4 15.56 36.15 16.67C34.2 17.72 32.7 18.47 30 18.47C27.3 18.47 25.8 17.72 23.85 16.67C21.6 15.53 19.14 14.27 15 14.27C10.86 14.27 8.4 15.56 6.15 16.67C4.2 17.72 2.7 18.47 0 18.47V24.32C4.05 24.32 6.6 23.03 8.85 21.92C10.8 20.96 12.39 20.12 15 20.12C17.61 20.12 19.2 20.87 21.15 21.92C23.4 23.06 25.86 24.32 30 24.32C34.14 24.32 36.6 23.03 38.85 21.92C40.8 20.96 42.39 20.12 45 20.12C47.7 20.12 49.2 20.87 51.15 21.92C53.4 23.06 55.89 24.32 60 24.32V18.47C57.3 18.47 55.8 17.72 53.85 16.67C51.6 15.53 49.05 14.27 45 14.27Z" fill="#FFD053"/>
</svg>
