<svg width="74" height="66" viewBox="0 0 74 66" fill="none" xmlns="http://www.w3.org/2000/svg">
<path d="M16.0946 3H58.313C60.4411 3 62.336 4.34705 63.0354 6.35699L69.7798 25.7419H4.28988L11.3981 6.28431C12.1187 4.31199 13.9948 3 16.0946 3Z" stroke="#FFD053" stroke-width="6"/>
<mask id="path-2-inside-1_925_2624" fill="white">
<path d="M0 28.7419H74V58.5484H0V28.7419Z"/>
</mask>
<path d="M74 58.5484V64.5484H80V58.5484H74ZM0 58.5484H-6V64.5484H0V58.5484ZM68 28.7419V58.5484H80V28.7419H68ZM74 52.5484H0V64.5484H74V52.5484ZM6 58.5484V28.7419H-6V58.5484H6Z" fill="#FFD053" mask="url(#path-2-inside-1_925_2624)"/>
<ellipse cx="16" cy="39.3871" rx="6" ry="6.3871" fill="#FFD053"/>
<ellipse cx="58" cy="39.3871" rx="6" ry="6.3871" fill="#FFD053"/>
<path d="M0 58.5483H13V63C13 64.6568 11.6569 66 10 66H3C1.34315 66 0 64.6568 0 63V58.5483Z" fill="#FFD053"/>
<path d="M61 58.5483H74V63C74 64.6568 72.6569 66 71 66H64C62.3431 66 61 64.6568 61 63V58.5483Z" fill="#FFD053"/>
</svg>
