<svg width="304" height="129" viewBox="0 0 304 129" fill="none" xmlns="http://www.w3.org/2000/svg">
<path d="M59.6 74.5001H56L47.3 62.0001H47.2V74.5001H43V54.6001H46.7L55.3 67.1001H55.5V54.6001H59.7L59.6 74.5001Z" fill="white"/>
<path d="M111.8 54.6001H116.4L119.7 68.4001H119.9L123.5 54.6001H127.4L131 68.4001H131.2L134.5 54.6001H139.1L133.4 74.5001H129.3L125.5 61.5001H125.3L121.5 74.5001H117.4L111.8 54.6001Z" fill="white"/>
<path d="M158.4 60.8C157.8 58 155.5 56.6 152.8 56.6C149.2 56.6 146.4 59.4 146.4 64.6C146.4 69.8 149.2 72.6 152.8 72.6C155.4 72.6 157.8 71.1 158.4 68.4H160.8C160.1 72.5 156.8 74.9 152.8 74.9C147.7 74.9 144 71 144 64.7C144 58.4 147.7 54.5 152.8 54.5C156.8 54.5 160.1 56.9 160.8 61H158.4V60.8Z" fill="white"/>
<path d="M162.4 74.4999L169.7 54.5999H172.2L179.5 74.4999H177L175 68.8999H167L165 74.4999H162.4ZM174.2 66.6999L171 57.6999H170.8L167.6 66.6999H174.2Z" fill="white"/>
<path d="M188.7 56.5C186.1 56.5 184.3 57.8999 184.3 59.7999C184.3 61.8999 186.7 62.6999 188.1 63.0999L190.1 63.5999C192.2 64.0999 195.7 65.2999 195.7 69.0999C195.7 72.2999 193.1 74.8 188.5 74.8C184.2 74.8 181.6 72.6 181.4 69.3H183.9C184.1 71.6 186.2 72.5999 188.6 72.5999C191.4 72.5999 193.5 71.2 193.5 69C193.5 67 191.6 66.2999 189.5 65.6999L187.1 65C184 64.1 182.1 62.4999 182.1 59.7999C182.1 56.4999 185.1 54.2 188.9 54.2C192.7 54.2 195.5 56.4 195.6 59.4H193.3C192.9 57.6 191.1 56.5 188.7 56.5Z" fill="white"/>
<path d="M198.1 54.5999H213V56.6999H206.8V74.3999H204.4V56.6999H198.2L198.1 54.5999Z" fill="white"/>
<path d="M218.8 74.4999H216.4V54.5999H218.8V74.4999Z" fill="white"/>
<path d="M239.4 74.4999H237.1L226.3 58.8999H226.1V74.4999H223.7V54.5999H226L236.9 70.1999H237.1V54.5999H239.5L239.4 74.4999Z" fill="white"/>
<path d="M252.1 56.6C248.6 56.6 245.7 59.4 245.7 64.6C245.7 69.8 248.5 72.6 252.2 72.6C255.6 72.6 257.9 70.3 258 66.8H252.8V64.7H260.4V66.8C260.4 71.7 257 74.9 252.3 74.9C247 74.9 243.4 71 243.4 64.7C243.4 58.4 247 54.5 252.1 54.5C256.3 54.5 259.5 57.1 260.3 61H257.8C256.9 58.2 255 56.6 252.1 56.6Z" fill="white"/>
<path d="M86.4 85.8999C98.3 85.8999 107.9 76.2999 107.9 64.3999C107.9 52.4999 98.3 42.8999 86.4 42.8999C74.5 42.8999 64.9 52.4999 64.9 64.3999C64.9 76.2999 74.5 85.8999 86.4 85.8999Z" fill="#FFC629"/>
</svg>
